<?xml version="1.0" encoding="utf-8"?>
<!-- Generator: Adobe Illustrator 21.1.0, SVG Export Plug-In . SVG Version: 6.00 Build 0)  -->
<svg version="1.1" id="Layer_1" xmlns="http://www.w3.org/2000/svg" xmlns:xlink="http://www.w3.org/1999/xlink" x="0px" y="0px"
	 width="182px" height="28px" viewBox="0 0 182 28" style="enable-background:new 0 0 182 28;" xml:space="preserve">
<style type="text/css">
	.st0{display:none;}
	.st1{display:inline;fill-rule:evenodd;clip-rule:evenodd;fill:#FFAB00;}
	.st2{display:inline;}
	.st3{display:inline;fill-rule:evenodd;clip-rule:evenodd;}
	.st4{fill:#FFAB00;}
	.st5{display:inline;fill-rule:evenodd;clip-rule:evenodd;fill:#FF7800;}
	.st6{fill-rule:evenodd;clip-rule:evenodd;fill:#FFAB00;}
	.st7{display:inline;fill-rule:evenodd;clip-rule:evenodd;fill:#FFB800;}
	.st8{display:inline;fill-rule:evenodd;clip-rule:evenodd;fill:url(#SVGID_1_);}
	.st9{display:inline;fill-rule:evenodd;clip-rule:evenodd;fill:url(#SVGID_2_);}
	.st10{fill:#FFB800;}
	.st11{display:inline;fill-rule:evenodd;clip-rule:evenodd;fill:#FFFFFF;}
	.st12{display:inline;fill-rule:evenodd;clip-rule:evenodd;fill:url(#SVGID_3_);}
	.st13{fill:#FFFFFF;}
	.st14{fill:url(#SVGID_4_);}
	.st15{display:inline;fill-rule:evenodd;clip-rule:evenodd;fill:url(#SVGID_5_);}
	.st16{display:inline;fill-rule:evenodd;clip-rule:evenodd;fill:url(#SVGID_6_);}
	.st17{fill:url(#SVGID_7_);}
	.st18{display:inline;fill-rule:evenodd;clip-rule:evenodd;fill:url(#SVGID_8_);}
	.st19{fill:url(#SVGID_9_);}
	.st20{fill:url(#SVGID_10_);}
	.st21{fill:url(#SVGID_11_);}
	.st22{fill:url(#SVGID_12_);}
	.st23{fill:url(#SVGID_13_);}
	.st24{display:inline;fill-rule:evenodd;clip-rule:evenodd;fill:url(#SVGID_14_);}
	.st25{fill-rule:evenodd;clip-rule:evenodd;}
	.st26{fill-rule:evenodd;clip-rule:evenodd;fill:#FF7800;}
	.st27{fill-rule:evenodd;clip-rule:evenodd;fill:#333333;}
	.st28{fill:#333333;}
	.st29{fill-rule:evenodd;clip-rule:evenodd;fill:#666666;}
	.st30{fill-rule:evenodd;clip-rule:evenodd;fill:#FFFFFF;}
	.st31{fill-rule:evenodd;clip-rule:evenodd;fill:#CCCCCC;}
	.st32{fill-rule:evenodd;clip-rule:evenodd;fill:#FFB800;}
	.st33{fill-rule:evenodd;clip-rule:evenodd;fill:url(#SVGID_15_);}
	.st34{fill-rule:evenodd;clip-rule:evenodd;fill:url(#SVGID_16_);}
	.st35{fill-rule:evenodd;clip-rule:evenodd;fill:url(#SVGID_17_);}
	.st36{fill:url(#SVGID_18_);}
	.st37{fill-rule:evenodd;clip-rule:evenodd;fill:url(#SVGID_19_);}
	.st38{fill-rule:evenodd;clip-rule:evenodd;fill:url(#SVGID_20_);}
	.st39{fill:url(#SVGID_21_);}
	.st40{fill-rule:evenodd;clip-rule:evenodd;fill:url(#SVGID_22_);}
	.st41{fill:url(#SVGID_23_);}
	.st42{fill:url(#SVGID_24_);}
	.st43{fill:url(#SVGID_25_);}
	.st44{fill:url(#SVGID_26_);}
	.st45{fill:url(#SVGID_27_);}
	.st46{fill-rule:evenodd;clip-rule:evenodd;fill:url(#SVGID_28_);}
	.st47{fill-rule:evenodd;clip-rule:evenodd;fill:#535353;}
	.st48{fill:#535353;}
	.st49{fill-rule:evenodd;clip-rule:evenodd;fill:#E59D72;}
</style>
<g>
	<path class="st47" d="M171.6,20.7c0.4,0.4,0.8,0.5,1.3,0.5h5.1c0.6,0,1.1,0,1.5-0.1c0.4-0.1,0.7-0.2,0.9-0.4
		c0.1-0.1,0.2-0.1,0.4,0.1c0.1,0.2,0.2,0.6,0.2,1.2v0.2c0,0.5-0.2,1-0.5,1.3c-0.4,0.4-0.8,0.5-1.3,0.5h-9c-0.5,0-0.9-0.2-1.3-0.6
		c-0.4-0.4-0.6-0.8-0.6-1.3V10c0-0.5,0.2-1,0.5-1.3c0.4-0.4,0.8-0.5,1.3-0.5h9c0.5,0,0.9,0.2,1.3,0.6C180.8,9,181,9.5,181,10v0.2
		c0,0.7-0.1,1.1-0.3,1.3c-0.1,0.1-0.2,0.1-0.3,0c-0.2-0.2-0.5-0.3-0.9-0.4c-0.5-0.1-1-0.1-1.5-0.1h-5.1c-0.5,0-1,0.2-1.3,0.6
		c-0.3,0.4-0.5,0.8-0.5,1.3v6.6C171.1,19.9,171.3,20.3,171.6,20.7z"/>
	<path class="st47" d="M165.3,24.1h-9c-0.5,0-0.9-0.2-1.3-0.6c-0.4-0.4-0.6-0.8-0.6-1.3V10c0-0.5,0.2-1,0.5-1.3
		c0.4-0.4,0.8-0.5,1.3-0.5h9c0.5,0,0.9,0.2,1.3,0.6c0.4,0.4,0.6,0.8,0.6,1.3v0.2c0,0.7-0.1,1.1-0.3,1.3c-0.1,0.1-0.2,0.1-0.3,0
		c-0.2-0.2-0.5-0.3-0.9-0.4c-0.5-0.1-1-0.1-1.5-0.1h-5.1c-0.5,0-1,0.2-1.3,0.6c-0.3,0.4-0.5,0.8-0.5,1.3v6.6c0,0.5,0.2,1,0.5,1.3
		c0.4,0.4,0.8,0.5,1.3,0.5h5.1c0.6,0,1.1,0,1.5-0.1c0.4-0.1,0.7-0.2,0.9-0.4c0.1-0.1,0.2-0.1,0.4,0.1c0.1,0.2,0.2,0.6,0.2,1.2v0.2
		c0,0.5-0.2,1-0.5,1.3C166.3,23.9,165.9,24.1,165.3,24.1z"/>
	<path class="st47" d="M151.3,24.1c-0.4,0-0.7-0.1-1-0.4c-0.3-0.3-0.4-0.6-0.4-1c0-0.4,0.1-0.7,0.4-1c0.3-0.3,0.6-0.4,1-0.4
		c0.4,0,0.7,0.1,1,0.4c0.3,0.3,0.4,0.6,0.4,1c0,0.4-0.1,0.7-0.4,1C152,23.9,151.7,24.1,151.3,24.1z"/>
	<path class="st47" d="M146.7,24.1h-9.9c-0.5,0-0.9-0.2-1.3-0.6c-0.4-0.4-0.6-0.8-0.6-1.3V22c0-0.7,0.1-1.1,0.3-1.3
		c0.1-0.1,0.2-0.1,0.3,0c0.2,0.2,0.5,0.3,0.9,0.4c0.5,0.1,1,0.1,1.5,0.1h6c0.5,0,0.9-0.2,1.3-0.6c0.4-0.4,0.6-0.8,0.6-1.3
		c0-0.5-0.2-1-0.6-1.3c-0.4-0.3-0.8-0.5-1.3-0.5h-7.1c-0.5,0-0.9-0.2-1.3-0.6c-0.4-0.4-0.6-0.8-0.6-1.3V10c0-0.5,0.2-1,0.5-1.3
		c0.4-0.4,0.8-0.5,1.3-0.5h9.9c0.5,0,0.9,0.2,1.3,0.6c0.4,0.4,0.6,0.8,0.6,1.3v0.2c0,0.7-0.1,1.1-0.3,1.3c-0.1,0.1-0.2,0.1-0.3,0
		c-0.2-0.2-0.5-0.3-0.9-0.4c-0.5-0.1-1-0.1-1.5-0.1h-6c-0.5,0-1,0.2-1.3,0.6c-0.3,0.4-0.5,0.8-0.5,1.3c0,0.5,0.2,1,0.5,1.3
		c0.3,0.3,0.8,0.5,1.3,0.5h7.1c0.5,0,0.9,0.2,1.3,0.6c0.4,0.4,0.6,0.8,0.6,1.3v5.7c0,0.5-0.2,1-0.5,1.3
		C147.7,23.9,147.3,24.1,146.7,24.1z"/>
	<g>
		<path class="st48" d="M124.2,17.5h6.7c0.5,0,0.9-0.2,1.3-0.6c0.4-0.4,0.6-0.8,0.6-1.3V10c0-0.5-0.2-1-0.5-1.3
			c-0.4-0.4-0.8-0.5-1.3-0.5h-9.5c-0.5,0-0.9,0.2-1.3,0.6c-0.4,0.4-0.6,0.8-0.6,1.3v12.2c0,0.5,0.2,1,0.5,1.3
			c0.4,0.4,0.8,0.5,1.3,0.5h9.5c0.5,0,0.9-0.2,1.3-0.6c0.4-0.4,0.6-0.8,0.6-1.3V22c0-0.7-0.1-1.1-0.3-1.3c-0.1-0.1-0.2-0.1-0.3,0
			c-0.2,0.2-0.5,0.3-0.9,0.4c-0.5,0.1-1,0.1-1.5,0.1h-5.6c-0.5,0-1-0.2-1.3-0.6c-0.3-0.4-0.5-0.8-0.5-1.3c0-0.5,0.2-1,0.5-1.3
			C123.2,17.7,123.7,17.5,124.2,17.5z M122.9,11.5c0.4-0.4,0.8-0.5,1.3-0.5h3.8c0.5,0,0.9,0.2,1.3,0.6c0.4,0.4,0.6,0.8,0.6,1.3
			c0,0.5-0.2,1-0.6,1.3c-0.4,0.3-0.8,0.5-1.3,0.5h-3.8c-0.5,0-0.9-0.2-1.3-0.5c-0.4-0.4-0.5-0.8-0.5-1.3S122.5,11.8,122.9,11.5z"/>
	</g>
	<path class="st47" d="M115.9,24.1h-0.2c-0.5,0-0.9,0-1.2-0.1c-0.1-0.2-0.1-0.3-0.1-0.4c0.2-0.2,0.3-0.5,0.4-0.8
		c0.1-0.3,0.1-0.7,0.1-1.2c0-0.2,0-0.4-0.1-0.7c-0.1-0.2-0.2-0.5-0.3-0.7c-0.1-0.3-0.3-0.5-0.4-0.7c-0.2-0.2-0.3-0.4-0.5-0.6
		c-0.3-0.4-0.8-0.7-1.4-0.9c-0.6-0.3-1.2-0.4-1.7-0.4h-1.3c-0.5,0-1.1,0.1-1.7,0.4c-0.6,0.3-1.1,0.6-1.5,0.9
		c-0.3,0.3-0.7,0.8-0.9,1.3c-0.3,0.5-0.4,1-0.4,1.4c0,1,0.2,1.6,0.5,2c0.1,0.1,0.1,0.2,0,0.3c-0.2,0.2-0.6,0.2-1.3,0.2h-0.2
		c-0.5,0-0.9-0.2-1.3-0.6c-0.4-0.4-0.6-0.8-0.6-1.3v-1.7c0-0.5,0.1-1.1,0.4-1.7c0.3-0.6,0.5-1.1,0.9-1.4c0.3-0.3,0.5-0.8,0.5-1.3
		c0-0.5-0.2-0.9-0.5-1.3c-0.2-0.2-0.3-0.4-0.5-0.6c-0.1-0.3-0.3-0.5-0.4-0.8c-0.1-0.3-0.2-0.6-0.3-0.9c-0.1-0.3-0.1-0.6-0.1-0.8V10
		c0-0.5,0.2-1,0.5-1.3c0.4-0.4,0.8-0.5,1.3-0.5h0.2c0.7,0,1.1,0.1,1.3,0.2c0.1,0.1,0.1,0.2,0,0.3c-0.2,0.2-0.3,0.4-0.4,0.8
		c-0.1,0.4-0.1,0.8-0.1,1.2c0,0.4,0.1,0.9,0.4,1.4c0.3,0.5,0.6,1,0.9,1.3c0.4,0.4,0.9,0.7,1.5,0.9c0.6,0.3,1.2,0.4,1.7,0.4h1.3
		c0.5,0,1.1-0.1,1.7-0.4c0.6-0.3,1.1-0.6,1.5-0.9c0.4-0.4,0.7-0.8,0.9-1.4c0.3-0.5,0.4-1,0.4-1.4c0-0.9-0.2-1.6-0.6-2
		c-0.1-0.1-0.1-0.2,0-0.3c0.2-0.2,0.6-0.2,1.3-0.2h0.2c0.5,0,0.9,0.2,1.3,0.6c0.4,0.4,0.6,0.8,0.6,1.3v1.7c0,1.2-0.4,2.3-1.3,3.1
		c-0.3,0.3-0.5,0.8-0.5,1.3c0,0.5,0.2,0.9,0.5,1.3c0.4,0.3,0.7,0.8,0.9,1.4c0.2,0.6,0.3,1.1,0.3,1.7v1.7c0,0.5-0.2,1-0.5,1.3
		C116.9,23.9,116.4,24.1,115.9,24.1z"/>
	<g>
		<path class="st48" d="M98.8,9.1c-0.4-0.3-0.9-0.5-1.3-0.8l1-2.2l-2.4,1.4C95,6.9,93.9,6.3,93,5.7c-1.5-0.9-2.8-0.7-4.1,0
			c-1,0.6-2.2,1.2-3.4,1.9L82.8,6l1.1,2.5c-0.5,0.3-1,0.6-1.4,0.8c-1.3,0.7-1.3,1.5-1.3,2.3c0,2,0,5.6,0,7.8c0,1.2,0.5,2,1.9,2.9
			c1.9,1.2,4.8,2.7,6.4,3.8c0.7,0.4,1.9,0.4,2.7,0c1.8-0.9,4.9-2.7,6.8-3.8c1.3-0.8,1.6-2,1.6-3c0-2.2,0-5.7,0-7.7
			C100.6,10.5,99.9,9.8,98.8,9.1z M98.1,18.4c0,0.8-0.2,1.7-1.2,2.3c-1.4,0.8-3.7,2.2-5,2.9c-0.6,0.3-1.5,0.3-2,0
			c-1.2-0.8-3.4-1.9-4.8-2.8c-1.1-0.7-1.4-1.3-1.4-2.2c0-1.6,0-4.3,0-5.8c0-0.6,0.1-1.2,1-1.7c1.2-0.7,3.3-1.9,4.7-2.7
			c0.9-0.5,2-0.6,3.1,0c1.3,0.8,3.2,1.8,4.4,2.5c0.8,0.5,1.3,1,1.3,1.8C98.1,14.1,98.1,16.7,98.1,18.4z"/>
	</g>
	<g>
		<path class="st48" d="M79.9,8.6c-0.4-0.4-0.8-0.5-1.3-0.5h-9.4c-0.5,0-1-0.2-1.3-0.6c-0.3-0.4-0.5-0.8-0.5-1.3V4.5
			c0-0.6,0-1.1,0.1-1.5c0.1-0.4,0.2-0.7,0.4-0.9C68,2,68,1.9,67.9,1.8c-0.2-0.2-0.6-0.2-1.3-0.2h-0.2c-0.5,0-0.9,0.2-1.3,0.6
			c-0.4,0.4-0.6,0.8-0.6,1.3v18.8c0,0.5,0.2,1,0.5,1.3c0.4,0.4,0.8,0.5,1.3,0.5h12.2c0.5,0,0.9-0.2,1.3-0.6c0.4-0.4,0.6-0.8,0.6-1.3
			V10C80.5,9.4,80.3,9,79.9,8.6z M77.7,19.4c0,0.5-0.2,0.9-0.6,1.3c-0.4,0.4-0.8,0.6-1.3,0.6h-6.6c-0.5,0-1-0.2-1.3-0.6
			c-0.3-0.4-0.5-0.8-0.5-1.3v-6.6c0-0.5,0.2-1,0.5-1.3c0.4-0.4,0.8-0.5,1.3-0.5h6.6c0.5,0,0.9,0.2,1.3,0.6c0.4,0.4,0.6,0.8,0.6,1.3
			V19.4z"/>
		<path class="st48" d="M60.9,1.5h-0.2c-0.5,0-0.9,0.1-1.2,0.2c-0.2,0.1-0.3,0.2-0.1,0.4c0.2,0.2,0.3,0.5,0.4,0.9
			c0.1,0.4,0.1,0.9,0.1,1.5v1.8c0,0.5-0.2,0.9-0.6,1.3c-0.4,0.4-0.8,0.6-1.3,0.6h-9.4c-0.5,0-0.9,0.2-1.3,0.6C47,9,46.8,9.5,46.8,10
			v12.2c0,0.5,0.2,1,0.5,1.3c0.4,0.4,0.8,0.5,1.3,0.5h12.2c0.5,0,0.9-0.2,1.3-0.6c0.4-0.4,0.6-0.8,0.6-1.3V3.4
			c0-0.5-0.2-0.9-0.6-1.3C61.8,1.7,61.4,1.5,60.9,1.5z M59.9,19.4c0,0.5-0.2,0.9-0.6,1.3c-0.4,0.4-0.8,0.6-1.3,0.6h-6.6
			c-0.5,0-1-0.2-1.3-0.6c-0.3-0.4-0.5-0.8-0.5-1.3v-6.6c0-0.5,0.2-1,0.5-1.3c0.4-0.4,0.8-0.5,1.3-0.5h6.6c0.5,0,0.9,0.2,1.3,0.6
			c0.4,0.4,0.6,0.8,0.6,1.3V19.4z"/>
		<path class="st48" d="M42.7,8.1h-9.5c-0.5,0-0.9,0.2-1.3,0.6C31.6,9,31.4,9.5,31.4,10v12.2c0,0.5,0.2,1,0.5,1.3
			c0.4,0.4,0.8,0.5,1.3,0.5h9.5c0.5,0,0.9-0.2,1.3-0.6c0.4-0.4,0.6-0.8,0.6-1.3V22c0-0.7-0.1-1.1-0.3-1.3c-0.1-0.1-0.2-0.1-0.3,0
			c-0.2,0.2-0.5,0.3-0.9,0.4c-0.5,0.1-1,0.1-1.5,0.1h-5.6c-0.5,0-1-0.2-1.3-0.6c-0.3-0.4-0.5-0.8-0.5-1.3c0-0.5,0.2-1,0.5-1.3
			c0.3-0.3,0.8-0.5,1.3-0.5h6.7c0.5,0,0.9-0.2,1.3-0.6c0.4-0.4,0.6-0.8,0.6-1.3V10c0-0.5-0.2-1-0.5-1.3C43.7,8.3,43.2,8.1,42.7,8.1z
			 M41.2,14.1c-0.4,0.3-0.8,0.5-1.3,0.5h-3.8c-0.5,0-0.9-0.2-1.3-0.5c-0.4-0.4-0.5-0.8-0.5-1.3s0.2-1,0.5-1.3
			c0.4-0.4,0.8-0.5,1.3-0.5h3.8c0.5,0,0.9,0.2,1.3,0.6c0.4,0.4,0.6,0.8,0.6,1.3C41.8,13.3,41.6,13.8,41.2,14.1z"/>
		<path class="st48" d="M27.3,8.1h-9.9c-0.5,0-0.9,0.2-1.3,0.6C15.7,9,15.5,9.5,15.5,10v12.2c0,0.5,0.2,1,0.5,1.3
			c0.4,0.4,0.8,0.5,1.3,0.5h9.9c0.5,0,0.9-0.2,1.3-0.6c0.4-0.4,0.6-0.8,0.6-1.3V22c0-0.7-0.1-1.1-0.3-1.3c-0.1-0.1-0.2-0.1-0.3,0
			c-0.2,0.2-0.5,0.3-0.9,0.4c-0.5,0.1-1,0.1-1.5,0.1h-6c-0.5,0-1-0.2-1.3-0.6c-0.3-0.4-0.5-0.8-0.5-1.3c0-0.5,0.2-1,0.5-1.3
			c0.3-0.3,0.8-0.5,1.3-0.5h7.1c0.5,0,0.9-0.2,1.3-0.6c0.4-0.4,0.6-0.8,0.6-1.3V10c0-0.5-0.2-1-0.5-1.3C28.3,8.3,27.8,8.1,27.3,8.1z
			 M25.8,14.1c-0.4,0.3-0.8,0.5-1.3,0.5h-4.3c-0.5,0-0.9-0.2-1.3-0.5c-0.4-0.4-0.5-0.8-0.5-1.3s0.2-1,0.5-1.3
			c0.4-0.4,0.8-0.5,1.3-0.5h4.3c0.5,0,0.9,0.2,1.3,0.6c0.4,0.4,0.6,0.8,0.6,1.3C26.3,13.3,26.2,13.8,25.8,14.1z"/>
		<path class="st48" d="M11.4,8.1H2.9c-0.5,0-1,0.2-1.3,0.5C1.2,9,1,9.4,1,10v5.7c0,0.5,0.2,0.9,0.6,1.3c0.4,0.4,0.8,0.6,1.3,0.6
			h5.7c0.5,0,0.9,0.2,1.3,0.5s0.6,0.8,0.6,1.3c0,0.5-0.2,1-0.6,1.3c-0.4,0.4-0.8,0.6-1.3,0.6H4c-0.5,0-1,0-1.5-0.1
			C2,21,1.7,20.9,1.6,20.7c-0.1-0.1-0.2-0.1-0.3,0C1.1,20.9,1,21.3,1,22v0.2c0,0.5,0.2,0.9,0.6,1.3c0.4,0.4,0.8,0.6,1.3,0.6h8.6
			c0.5,0,1-0.2,1.3-0.5c0.4-0.4,0.5-0.8,0.5-1.3v-5.7c0-0.5-0.2-0.9-0.6-1.3c-0.4-0.4-0.8-0.6-1.3-0.6H5.7c-0.5,0-1-0.2-1.3-0.5
			c-0.3-0.3-0.5-0.8-0.5-1.3c0-0.5,0.2-1,0.5-1.3c0.3-0.4,0.8-0.6,1.3-0.6h4.6c0.5,0,1,0,1.5,0.1c0.5,0.1,0.8,0.2,0.9,0.4
			c0.1,0.1,0.2,0.1,0.3,0c0.2-0.2,0.3-0.6,0.3-1.3V10c0-0.5-0.2-0.9-0.6-1.3C12.4,8.3,11.9,8.1,11.4,8.1z"/>
	</g>
	<path class="st49" d="M91.1,23v-1.6l6.2-3.3v1.3L91.1,23z M91.1,16.8l6.2-0.6v1.2l-6.2,2.3V16.8z M91.1,12.2l6.2,2v1.2l-6.2-0.3
		V12.2z M91.1,8.5l6.2,3.6v1.3l-6.2-3V8.5z"/>
	<g>
		<polygon class="st49" points="91,10.4 84.8,13.4 84.8,12.1 91,8.6 		"/>
		<polygon class="st49" points="91,15.1 84.8,15.4 84.8,14.1 91,12.2 		"/>
		<polygon class="st49" points="91,19.7 84.8,17.4 84.8,16.2 91,16.8 		"/>
		<polygon class="st49" points="91,22.9 84.8,19.4 84.8,18.2 91,21.4 		"/>
	</g>
</g>
</svg>
